<?xml version="1.0" encoding="utf-8"?>
<!-- Generator: Adobe Illustrator 26.5.0, SVG Export Plug-In . SVG Version: 6.00 Build 0)  -->
<svg version="1.1" id="Layer_1" xmlns="http://www.w3.org/2000/svg" xmlns:xlink="http://www.w3.org/1999/xlink" x="0px" y="0px"
	 viewBox="0 0 375 375" style="enable-background:new 0 0 375 375;" xml:space="preserve">
<style type="text/css">
	.st0{fill:#FFFFFF;}
	.st1{display:none;fill:#FFFFFF;}
</style>
<path class="st0" d="M350.4,251.2c-3.5-4.1-7.8-8.1-12.8-11.9c-31.7,24.1-86.9,40-149.9,40c-62.9,0-118.2-16-149.9-40.1
	c-5,3.8-9.4,7.9-12.9,11.9C17,260.4,13,269.8,13,279.4s4,19,11.9,28.1c8.2,9.5,20.8,18.6,36.3,26.2c16.2,8,35.2,14.2,56.4,18.6
	c22.2,4.6,45.7,6.9,70.1,6.9s47.9-2.3,70.1-6.9c21.2-4.4,40.2-10.6,56.4-18.6c15.5-7.6,28-16.7,36.3-26.2
	c7.9-9.2,11.9-18.6,11.9-28.1S358.3,260.4,350.4,251.2z"/>
<path class="st0" d="M343.6,165.4c-3-3.5-6.7-7-10.9-10.3c-32,22.3-85,36.8-144.9,36.8c-60,0-113-14.6-145-36.9
	c-4.2,3.4-7.9,6.8-11,10.4c-7.5,8.8-11.4,17.8-11.4,26.9s3.8,18.2,11.4,26.9c7.9,9.1,19.9,17.8,34.7,25.1
	c15.5,7.6,33.7,13.6,54,17.8c21.3,4.4,43.8,6.6,67.1,6.6s45.9-2.2,67.1-6.6c20.3-4.2,38.5-10.2,54-17.8
	c14.8-7.3,26.8-15.9,34.7-25.1c7.5-8.8,11.4-17.8,11.4-26.9S351.2,174.2,343.6,165.4z"/>
<path class="st0" d="M342.9,78.6c-7.9-9.1-19.8-17.7-34.6-24.9c-15.4-7.6-33.6-13.5-53.7-17.7c-21.2-4.4-43.6-6.6-66.8-6.6
	S142.2,31.7,121,36c-20.2,4.2-38.3,10.1-53.7,17.7c-14.7,7.2-26.7,15.9-34.6,24.9c-7.5,8.7-11.3,17.7-11.3,26.8s3.8,18.1,11.3,26.8
	c7.9,9.1,19.8,17.7,34.6,24.9c15.4,7.6,33.6,13.5,53.7,17.7c21.2,4.4,43.6,6.6,66.8,6.6s45.7-2.2,66.8-6.6
	c20.2-4.2,38.3-10.1,53.7-17.7c14.7-7.2,26.7-15.9,34.6-24.9c7.5-8.7,11.3-17.7,11.3-26.8S350.4,87.3,342.9,78.6z"/>
<path class="st1" d="M387.3,325c-1.9,2.6-3.7,5.2-5.6,7.7c-8.9,9.9-20.4,15.9-34.1,17.8c-5.7,0.8-13.1,1.6-20.1,1.1
	c-4-0.3-8.1-1.3-12-2.2c-2.6-0.7-5.4-1.3-8.2-1.7c-8.6-1.4-10.9-0.5-14.2,5.7c-1.4,2.6-2.3,6.1-2.6,10.3
	c-1.1,14.1,1.1,27.7,6.5,40.4c-0.5,0.3-1.2,0.5-1.7,0.9c-5.6-12.9-7.8-26.9-6.8-41.3c0.3-4.5,1.3-8.2,2.8-11.1
	c3.9-7.4,7.4-8.1,16.2-6.6c2.8,0.4,5.6,1.1,8.3,1.7c3.8,1,7.7,1.9,11.6,2.2c6.9,0.5,13.8-0.2,19.7-1.1c13.6-1.9,24.8-7.9,33.5-18
	C383.1,328.5,385.2,326.6,387.3,325z M266.5,371.8c-2.7-7.6-5.7-15.4-13.3-19.6c-4.6-2.5-9.7-4-14.6-5.4c-1-0.3-1.9-0.5-2.8-0.9
	c-9.7-3-18.5-6.5-26.8-10.7c-8.2-4.1-15.1-5.8-22-5.1c-6.1,0.5-12.2,2.2-18.7,5c-5.9,2.5-12,5-17.9,7.5c-7.1,2.9-14.5,6-21.7,9.1
	l-1,0.4c-8.1,3.5-16.4,7.2-23.5,13.1c-4.9,4-8.8,9-11.6,14.9c-1.9,3.8-3.7,7.8-5.4,11.6c-1.5,3.3-3.1,6.5-4.6,9.8
	c-0.8,1.5-1.5,2.9-2.3,4.4c0.5,0.3,1.2,0.5,1.7,0.9c0.8-1.4,1.5-2.8,2.3-4.4c1.5-3.3,3-6.5,4.6-9.9c1.7-3.8,3.6-7.7,5.4-11.5
	c2.7-5.7,6.5-10.4,11.2-14.4c6.9-5.7,15.1-9.2,23.1-12.8l1-0.4c7.2-3.2,14.5-6.2,21.6-9.1c5.9-2.4,12-4.9,17.9-7.5
	c6.3-2.7,12.3-4.4,18.2-4.9c6.4-0.7,13.2,1,20.9,4.9c8.4,4.2,17.2,7.7,27,10.8c1,0.3,1.9,0.5,2.8,0.9c4.9,1.4,9.8,2.9,14.1,5.3
	c7,3.8,9.7,11.3,12.4,18.6l0.2,0.7c5.2,14.3,9.8,27.2,13.8,39.4c0.5-0.2,1.2-0.4,1.7-0.8c-4-12.2-8.5-25-13.7-39.3L266.5,371.8z
	 M88.3,355.4c5.1-7.9,13.5-12.1,21.7-16l0.2-0.1c5.9-2.9,13.7-6.6,21.8-9.9l1.5-0.7c7.9-3.3,16.1-6.5,24.4-8.8
	c12.4-3.5,24.8-9,37.9-17.1c5.6-3.5,11.2-6.5,18.3-6.1c6.5,0.4,11.9,3.4,17.2,6.5c2,1.2,3.8,2.4,5.8,3.6c5.9,3.8,11.9,7.6,18.7,9.8
	l2.4,0.8c9,2.8,18.4,5.7,28.2,5.6c4,0,7.4-1.3,10.1-3.8c3-2.8,6.1-6.1,8.9-9.7c6.6-8.4,12.3-15.8,17.3-22.6
	c4.2-5.8,8.6-13.1,8.8-22.4c0.2-12-4.9-20.9-15.9-27.3l-0.3-0.2c-5.2-3-10.7-6.3-15.8-9.8c-7.1-5-12.4-11.9-17.1-18.5
	c-1.7-2.5-3.4-4.9-5.1-7.4c-3.8-5.6-7.7-11.2-11.9-16.8c-4.7-6.3-10.1-9-16.5-8.5h-0.1c-0.1,0-0.3,0-0.5,0c-2.8,0.9-5.7,1.8-8.5,2.7
	c-6.3,2.1-12.5,4-18.8,6.1c-9.7,3.3-17.9,9.4-26.6,19.8c-3.8,4.6-8.5,10-13.4,14.8c-3.6,3.5-8.8,5.3-15.8,5.4
	c-12.6,0.2-27.4,0-41.9-3.7c-3.9-1-7.8-2.3-11.6-3.5c-3-1-6.3-2.1-9.5-2.9c-9.8-2.7-18.9-1.9-27.1,2.8c-9.5,5.3-18.9,11-28.2,16.5
	c-5.3,3.2-10.7,6.3-16,9.5C18.8,250.6,9.3,260.3,2,273c-3.4,5.9-5.3,12.3-5.7,18.9c-0.5,8.9,0.1,18.5,2.2,30.1
	c0.9,5.2,1.5,10.6,2.2,15.8c0.2,2.2,0.5,4.4,0.8,6.5c0.8,0.9,1.5,1.7,2.3,2.7c0-0.3-0.1-0.8-0.1-1.1c-0.3-2.7-0.7-5.6-1-8.3
	c-0.7-5.2-1.2-10.7-2.2-15.9c-2-11.4-2.6-20.9-2.1-29.7c0.3-6.3,2.2-12.4,5.4-18.1c7.1-12.4,16.3-21.9,28.1-28.7
	c5.3-3.2,10.7-6.3,16-9.5c9.1-5.4,18.7-11.1,28.2-16.4c4.8-2.7,10-4.1,15.6-4.1c3.3,0,6.6,0.4,10.1,1.5c3.2,0.9,6.3,2,9.4,2.9
	c3.8,1.2,7.8,2.5,11.8,3.5c14.7,3.8,29.7,4,42.4,3.8c7.5-0.1,13.2-2.1,17.1-6c5-4.9,9.7-10.3,13.5-15c8.5-10.2,16.4-16.1,25.7-19.3
	c6.2-2.1,12.5-4.1,18.8-6.1c2.8-0.9,5.6-1.7,8.4-2.7c0.1,0,0.2,0,0.2,0c5.8-0.5,10.6,2,14.8,7.7c4,5.4,7.9,11.2,11.8,16.6
	c1.7,2.5,3.4,5,5.1,7.4c4.8,6.9,10.2,13.8,17.5,18.9c5.1,3.6,10.6,6.7,15.9,9.9l0.3,0.2c10.4,6.1,15.2,14.3,15,25.7
	c-0.2,8.8-4.4,15.8-8.4,21.3c-5,6.9-10.7,14.3-17.2,22.6c-2.8,3.5-5.8,6.6-8.7,9.5c-2.4,2.2-5.3,3.3-8.9,3.4
	c-9.6,0.1-18.7-2.7-27.6-5.4l-2.4-0.8c-6.6-2.1-12.5-5.9-18.3-9.6c-2-1.2-3.8-2.5-5.8-3.7c-5.6-3.4-11.1-6.4-18.1-6.9
	c-7.6-0.5-13.5,2.7-19.4,6.4c-12.8,7.9-25,13.5-37.3,16.9c-8.4,2.3-16.7,5.7-24.6,8.9l-1.5,0.7c-8.2,3.3-16,7.1-22,10l-0.2,0.1
	c-8.4,4.1-17,8.4-22.4,16.8c-3.2,4.9-6.2,9.7-8.5,14.7c-4.8,10.4-10,19.4-15.9,27c0.5,0.3,1.1,0.7,1.6,1c5.9-7.7,11.1-16.6,16-27.2
	C82.2,364.8,85.2,360.4,88.3,355.4z M382.5,250.4c0.3,2.6-0.7,6.2-4.7,7.6c-1.3,0.4-2.6,0.7-3.7,0.7c-3.4,0-6.2-2-8.2-5.8
	c-2.8-5.3-2.3-11-1.5-15.9c0.3-2.2,0.9-5.6,4.5-6.5c0.1,0,0.3,0,0.4,0s0.2,0,0.4,0c0.1,0,0.3,0,0.5,0.1c0.5,0,1.3,0.1,1.7,0.5
	C378.2,236.4,381.7,243,382.5,250.4z M380.7,250.6c-0.9-7-4.1-13.1-9.9-18.2c-0.1,0-0.4-0.1-0.7-0.1s-0.5,0-0.8-0.1
	c-2.2,0.7-2.6,2.5-3,5c-0.8,4.8-1.2,9.9,1.3,14.7c2.3,4.4,5.3,5.7,9.6,4.2C380.2,255.1,380.9,252.6,380.7,250.6z M360.6,148.9
	c5,5.3,6.2,12.3,3.3,19.7c-2.7,7.1-7.6,12.1-13.9,14.7c-5.9,2.3-11.1,3.7-16,4.2c-2.3,0.2-4.8,0.5-7.2,0.5c-3.3,0-6.6-0.4-9.8-2
	c-13-6.1-15.6-18.5-16.5-27.2c-0.9-8.8-0.4-16.3,1.4-23l0.1-0.2c2.3-8.2,4.6-16.5,14.8-18.8c0.1,0,0.2,0,0.4,0c0.1,0,0.1,0,0.2,0
	c4.8,0.1,9.1,1.4,13.2,4c9.8,6.3,17.6,14.9,25.2,23.1C357.4,145.6,359,147.3,360.6,148.9z M359.1,150.3c-1.6-1.7-3.2-3.4-4.8-5.1
	c-7.6-8.2-15.3-16.6-24.9-22.8c-3.7-2.4-7.7-3.6-12.2-3.7c-0.1,0-0.1,0-0.2,0c-9.1,2.1-11.2,9.6-13.4,17.5l-0.1,0.2
	c-1.7,6.4-2.3,13.7-1.3,22.3c1.3,13.2,6.3,21.3,15.5,25.7c5.1,2.4,10.9,1.8,16,1.3c4.7-0.4,9.7-1.9,15.5-4.1
	c5.9-2.3,10.3-7,12.8-13.6C363.9,163.2,364.9,156.3,359.1,150.3z M339.9,156c1,1.3,1.3,3.2,1,5.2c-0.4,2.7-2.1,5.4-4.1,6.9
	c-2.2,1.5-4.6,2.3-7.2,2.3c-1.4,0-2.8-0.2-4.4-0.7c-4.9-1.4-8.1-5.3-8.6-10.8c-0.5-4.6-0.4-11.1,6.1-14.4c0.2-0.1,0.4-0.1,0.7-0.1
	c0.1,0,0.2,0,0.3,0c0.7,0.1,1.3,0.1,2.1,0.2c1.7,0.1,3.6,0.2,4.8,1.3C334,148.8,337.3,152.3,339.9,156z M338.4,157.1
	c-2.6-3.6-5.7-7-9-9.7c-0.8-0.7-2.3-0.8-3.7-0.9c-0.8-0.1-1.5-0.1-2.2-0.2c-4.2,2.2-5.7,5.9-4.9,12.4c0.5,4.6,3.2,7.9,7.3,9.1
	c3.7,1.1,7.1,0.7,9.9-1.3c1.6-1.1,2.9-3.4,3.3-5.5C339.2,159.3,339,158,338.4,157.1z M371.3,143.2c5.6,5.7,8.1,11.6,7.6,18.4
	c-0.5,7.5-4,13.7-7.4,18.9c-6,9.1-12.5,14-20.7,15.2c-10.4,1.6-19.2,2.4-27.3,2.6c-0.2,0-0.4,0-0.7,0c-7.4,0-13.9-2.9-18.4-8.3
	c-7.8-9.4-12.3-21.3-13.3-35.4c-0.7-10.7,0.1-21.1,2.3-30.9c2-8.5,5-16.8,14.8-19.9c0.1-0.1,0.3-0.1,0.5,0c0.1,0,0.1,0,0.2,0
	c1,0,2,0,3,0c2.3,0,4.6,0,6.7,0.4c9.5,2.3,17.1,7.7,23.4,12.8c5.2,4.2,10.3,8.8,15.2,13.2l2.5,2.2
	C363.4,135.6,367.5,139.3,371.3,143.2z M370,144.5c-3.8-3.9-7.9-7.5-11.4-10.7l-2.5-2.2c-4.9-4.4-10-8.9-15.1-13.1
	c-6.1-4.9-13.5-10.2-22.6-12.4c-2-0.4-4-0.4-6.3-0.4c-1.1,0-2.1,0-3,0h-0.1c-8.3,2.7-11.3,9.4-13.4,18.5c-2.2,9.7-2.9,19.9-2.3,30.4
	c0.9,13.7,5.2,25.2,12.8,34.3c4.2,5.1,10.4,7.8,17.6,7.6c8.1-0.2,16.8-1,27.1-2.6c7.6-1.2,13.7-5.8,19.4-14.4c3.3-5,6.5-11,7.1-18
	C377.4,155.3,375.1,149.7,370,144.5z M385.6,182.1c-5,11-10.8,21.7-15.7,30.8c-1.6,2.9-2.9,4-4.9,4c-1.2,0-2.7-0.4-4.7-1.3
	c-1.2-0.5-2.4-1-3.7-1.4c-1.5-0.5-2.9-1.1-4.4-1.7c-6.9-2.9-14.3-3.3-21.4-3.5c-2.9-0.1-6-0.2-8.9-0.5c-8.8-0.9-14.8-3.4-19.4-8.1
	c-11.6-12-18.3-27.9-19.6-47c-0.9-12.9-1.4-26.8,1.3-40.1c1.4-6.9,3.8-14.5,10.9-18.9c2.1-1.3,4.6-2.1,7-2.7c1.1-0.3,2.1-0.7,3.2-1
	c0.1-0.1,0.3-0.1,0.5,0c0.1,0,0.2,0,0.3,0c1,0.1,2,0.2,2.8,0.4c2.2,0.2,4.4,0.5,6.4,1.2c7.9,2.6,15.5,6.5,22.5,11.6
	c11.5,8.4,21.6,16,30.7,23.5c7,5.7,12.5,11,17,16.3c4.5,5.3,6.5,12.7,5.6,20.1C390.3,169.7,388.4,176,385.6,182.1z M383.9,181.4
	c2.7-5.9,4.5-12,5.2-17.7c0.9-7-1-13.7-5.1-18.7c-4.4-5.2-9.8-10.4-16.7-16c-9.1-7.4-19.2-15-30.6-23.4c-6.9-5-14.3-8.8-22-11.3
	c-2-0.7-3.9-0.9-6.1-1.2c-1-0.1-2-0.2-2.9-0.4c-1,0.3-2.1,0.7-3.2,1c-2.4,0.7-4.6,1.3-6.5,2.5c-6.4,4-8.6,10.9-10,17.6
	c-2.6,13.2-2.2,26.8-1.3,39.6c1.3,18.7,7.7,34.2,19,45.8c4.2,4.4,9.9,6.6,18.2,7.5c2.9,0.3,6,0.4,8.8,0.5c7.4,0.3,14.9,0.5,22.1,3.7
	c1.4,0.7,2.8,1.1,4.4,1.6c1.2,0.4,2.5,0.9,3.7,1.4c4.4,1.7,5.1,1.7,7.2-2C373.2,202.8,379,192.3,383.9,181.4z M422.2,213
	c-1.2-10.7-3.9-21.2-6.5-31.3l-1.1-4.1c-2.1-7.9-4.1-16.2-5.3-24.5c-2-13.5-8.8-24.9-21.1-34.9c-3.3-2.7-6.5-5.5-9.7-8.3l-1-0.9
	c-5.2-4.6-11.3-8.4-19.3-12.2c-9.9-4.7-19.6-10.4-28.8-17.1c-9-6.4-19.4-10.9-28.4-14.5c-2.8-1.1-5-2.2-7.1-3.4
	c-4.9-2.8-7.7-7.4-8.2-13.4c-1.1-13.6-5.1-26.4-12.2-39.5c-4.7-8.7-7.5-18.7-8.6-30.7c-0.3-4.2-0.8-9.1-0.8-14c0-2.2,0.1-4.5,0.2-7
	c-1.2-0.4-2.5-0.9-3.8-1.2c-0.2,2.8-0.3,5.5-0.3,8.2c0,5,0.4,10,0.8,14.4c1.1,12.5,4,23.1,9,32.2c6.9,12.5,10.7,24.9,11.8,38
	c0.7,7.3,4.1,12.9,10.1,16.4c2.2,1.2,4.6,2.4,7.5,3.6c9.1,3.7,18.9,7.8,27.6,14c9.5,6.7,19.4,12.6,29.5,17.4
	c7.6,3.6,13.4,7.3,18.4,11.6l1,0.9c3.2,2.7,6.4,5.7,9.8,8.4c11.6,9.6,18,19.9,19.8,32.5c1.2,8.4,3.4,16.8,5.4,24.8l1.1,4.1
	c2.6,10,5.2,20.5,6.4,30.8c0.8,6.9,2.6,11.6,8.3,14.8c0.2-1.3,0.4-2.7,0.7-4C423.8,221.8,422.7,218.4,422.2,213z M322.1,375
	c-6.3,1.6-9.4,8.2-7.7,16.3c0.2,0.9,0.4,1.7,0.7,2.6c0.5-0.3,1.1-0.7,1.7-1.1c-0.1-0.7-0.3-1.3-0.4-2c-1.5-7.2,1-12.7,6.3-14.1
	c3.3-0.9,6.6-1.2,9.9-1.2c1,0,1.9,0,2.7,0.1c1.5,0.1,3.2,0.3,4.7,0.4c0.7-0.5,1.4-1.1,2.1-1.6c-2.2-0.2-4.5-0.5-6.6-0.7
	C331.1,373.5,326.5,374,322.1,375z M113.6,31.4c-2.9-6-5.8-13.3-5.3-21.5c0.4-7.8,4-13.7,10.7-17.5c1.7-1,3.8-1.4,5.8-1.7
	c0.8-0.1,1.5-0.3,2.3-0.4c0.2,0,0.4-0.1,0.7,0c0.2,0,0.4,0,0.7,0c1.6,0.4,3.4,0.8,5,1.2c3.8,0.9,7.6,1.7,11.3,3.3
	c9.2,3.9,19.5,5.8,33.1,6.2c13,0.3,23.3,2.5,32.2,6.7c18.1,8.4,28.3,22.6,30.3,42.2c0.9,8.4,1.7,17,3.2,25.6
	c1.6,10.3-2.3,18.5-10.8,22.3c-5.2,2.4-10.7,4.5-15.9,6.4c-3.2,1.2-6.3,2.4-9.5,3.7c-11,4.5-22.9,7-35.3,7.3c-0.4,0-1,0-1.5,0
	c-4.1,0-8.3-0.5-12.3-1c-1.3-0.1-2.7-0.3-4.1-0.4c-13.2-1.4-21.9-8.3-25.9-20.5c-2.5-7.4-3.4-15-4.2-22.5c-0.3-2.6-0.7-5.2-1-7.8
	C121.3,51.4,118.3,41.1,113.6,31.4z M117,29.8c4.9,10.1,8.1,20.7,9.8,32.4c0.4,2.6,0.7,5.2,1,7.9c0.9,7.2,1.7,14.7,4.1,21.8
	c3.6,10.8,11,16.5,22.6,17.8c1.4,0.1,2.7,0.3,4.1,0.4c4.4,0.5,8.9,1.1,13.3,1c12-0.3,23.3-2.7,33.9-7c3.2-1.3,6.4-2.5,9.6-3.7
	c5.2-2,10.6-4,15.7-6.3c7-3.2,10-9.6,8.6-18.2c-1.4-8.7-2.3-17.4-3.2-25.8c-1.9-18.5-11-31.2-28.1-39.2c-8.6-4-18.1-6-30.7-6.3
	c-14.1-0.4-24.8-2.4-34.5-6.5c-3.4-1.4-6.9-2.2-10.7-3c-1.6-0.3-3.3-0.8-4.9-1.1c-0.8,0.2-1.5,0.3-2.3,0.4c-1.7,0.3-3.4,0.5-4.6,1.3
	c-5.6,3.2-8.5,7.9-8.8,14.5C111.6,17.5,114.4,24.1,117,29.8z M127.3,37.2c-0.5-3.9-1.1-7.9-1.1-11.9c0-7.9,4.2-13.4,11.4-14.4
	l2.2-0.3c3.6-0.5,7.3-1.1,11-1.2c3.9-0.1,8.1-0.1,11.9-0.1c2.6,0,5.1,0,7.7,0c1,0,2-0.2,2.9-0.4c0.4-0.1,1-0.2,1.5-0.3
	c0.1,0,0.2,0,0.3,0c0.1,0,0.2,0,0.3,0c0.8,0.1,1.5,0.2,2.3,0.3c1.7,0.2,3.4,0.4,4.9,0.4c6.9,0,13.5,1.4,20.4,4.4
	c14,6.1,22.5,15,25.8,27.1c2.3,8.6,3.2,18.2,2.7,30.2c-0.3,7.9-3.7,14.5-9.6,18.7c-6.8,4.9-14.6,9.1-24.7,13.2
	c-7.1,2.8-14,4.2-20.6,4.2c-1.1,0-2.2,0-3.3-0.1c-7.3-0.5-14.3-2-20.9-3.4c-6.5-1.4-11.8-5.6-15.2-12c-4.6-8.4-5.7-17.6-6.6-26.7
	c-0.2-2.1-0.4-4.2-0.8-6.3c-0.5-3.9-1-7.9-1.4-11.9l-0.5-4.7C127.9,40.6,127.5,38.8,127.3,37.2z M128.2,25.2c0,3.8,0.5,7.8,1.1,11.6
	c0.2,1.7,0.4,3.4,0.7,5.1l0.5,4.7c0.4,3.9,0.9,7.8,1.4,11.8c0.3,2.1,0.5,4.2,0.8,6.3c1,8.8,2.1,17.8,6.4,25.9
	c3.2,5.9,7.9,9.7,13.9,11c6.4,1.4,13.5,2.8,20.6,3.4c7.3,0.5,15-0.9,23-4c9.9-4,17.7-8.2,24.4-12.9c5.4-3.9,8.4-9.9,8.7-17.3
	c0.5-11.8-0.3-21.2-2.6-29.6c-3.2-11.6-11-19.9-24.7-25.9c-6.6-2.8-13.1-4.2-19.6-4.1c-1.7,0-3.5-0.2-5.1-0.4
	c-0.8-0.1-1.5-0.2-2.3-0.3h-0.1c-0.4,0.1-1,0.2-1.4,0.2c-1.1,0.2-2.2,0.4-3.4,0.4c-2.6,0-5.1,0-7.7,0c-1.5,0-2.9,0-4.5,0
	c-2.4,0-4.9,0-7.3,0.1c-3.6,0.1-7.2,0.7-10.8,1.2l-2.2,0.3C129.2,14,128.2,22,128.2,25.2z M21.9,197.8l0.9-2.5
	c3.5-9.8,7.2-20,10.2-30.2c2-6.5,2.8-12.1,2.6-17.2c-0.2-5.5-1.3-11.1-2.4-16.4c-0.3-1.5-0.7-2.9-0.9-4.5c-0.4-2.5-1.1-5-1.7-7.4
	c-1-3.9-2-8.1-2.4-12.1c-1.2-12.7,1.1-25.5,3.3-36.6c2.8-14,2.8-27,0-39.5c-1.5-6.6-2.8-13.8-1.7-20.7c0.7-3.9,1.6-7.6,3.2-11
	c-1,0.9-2.1,1.7-3.1,2.5c-0.9,2.5-1.5,5.2-2,8.1c-1.1,7.2,0.2,14.6,1.7,21.4c2.8,12.3,2.8,24.9,0,38.7c-2.3,11.1-4.6,24.2-3.4,37.1
	c0.4,4.1,1.4,8.4,2.4,12.4c0.5,2.4,1.2,4.9,1.6,7.3c0.3,1.5,0.5,2.9,0.9,4.5c1.1,5.3,2.2,10.8,2.4,16.1c0.2,4.8-0.7,10.2-2.5,16.5
	c-3,10.1-6.6,20.2-10.1,30.1l-0.9,2.5c-0.9,2.5-2.2,5-4.1,7.8c-8.6,12.9-15.8,23.5-22.6,33.4c-3.6,5.2-8.2,9.4-13.5,12.4
	c-5.7,3.3-12.7,3.9-19.4,2.1c-3.3-1-6.2-2.5-8.8-4.6c0.2,1,0.5,2,0.8,2.9c2.3,1.5,4.8,2.7,7.4,3.5c7.1,2.1,14.7,1.3,20.8-2.2
	c5.6-3.2,10.3-7.5,14.1-12.9c6.9-9.9,14-20.5,22.6-33.4C19.7,203.1,21.1,200.4,21.9,197.8z M149.1,57.9c0.4-8.5,3.9-15.7,10.2-21.4
	c5.1-4.7,11.6-7.7,20-9.5c0.1,0,0.2,0,0.4,0c0.1,0,0.1,0,0.2,0h2c1.4,0,2.8,0,4.2,0c10.3,0.3,18.6,5.1,23.2,13.3
	c6.2,11.1,6,23.6-0.8,34.2c-6.4,10-16.1,15.3-28.2,15.3c-1.1,0-2.2,0-3.3-0.1c-7.7-0.5-14-3-19.4-7.6
	C151.3,76.4,148.5,68.8,149.1,57.9z M159.1,80.5c5,4.2,11,6.6,18.3,7.2c13.1,1,23-3.8,29.6-14.3c6.4-10.1,6.6-21.5,0.7-32.2
	c-4.2-7.6-12-12-21.6-12.3c-1.4,0-2.7,0-4.1,0c-0.7,0-1.3,0-2,0c-0.1,0-0.1,0-0.2,0c-8.1,1.6-14.2,4.5-19.2,8.9
	c-6,5.3-9.1,12.1-9.7,20C150.5,68.2,153,75.4,159.1,80.5z M139.7,72.4c-1.7-8.8-1.6-17.5-1.2-27.1c0.3-8.7,3.4-15,9.1-18.7
	c3.8-2.4,8.5-4.5,14.4-6.3c3.6-1.1,7.4-1.7,11-2.4c1.6-0.2,3.2-0.5,4.8-0.9c0.1,0,0.2,0,0.4,0c0.1,0,0.2,0,0.2,0
	c1,0.1,2,0.1,2.9,0.2c2.1,0.1,4.2,0.3,6.3,0.5c14.8,1.9,24.9,8.7,31.1,20.8c4.2,8.5,4,17.6,3.4,26.2c-0.5,7.4-3.3,13.6-8.2,18.3
	c-10.7,10.4-23,15.8-36.6,15.8c-4.6,0-9.4-0.7-14.3-1.7C150.2,93.9,142.4,85.8,139.7,72.4z M141.7,71.9c2.5,12.7,9.8,20.3,22.1,23.4
	c18.7,4.6,35.3,0,49-13.5c4.5-4.4,7-10.1,7.5-17.1c0.7-8.3,1-17.1-3.2-25.2c-5.8-11.5-15.5-18-29.6-19.8c-2.1-0.2-4.2-0.4-6.2-0.5
	c-1-0.1-2-0.1-2.9-0.2h-0.1c-1.6,0.3-3.3,0.5-4.8,0.9c-3.6,0.7-7.3,1.2-10.8,2.3c-5.8,1.7-10.2,3.7-13.9,6.1
	c-5.2,3.3-8.1,9-8.3,17.1C140,54.7,139.9,63.3,141.7,71.9z M160.7-43.4c3.2,2.3,7.3,5,11.8,6.5c1.1,0.3,2.2,0.5,3.4,0.5
	c2.3,0,4.6-0.5,6.3-1.2c2.2-0.9,3.7-2.4,4.2-4.5c0.5-2.3-0.1-4.8-1.8-6.9c-2.3-2.7-5-4.5-7.9-6c-1.4,0.1-2.8,0.1-4.1,0.2
	c4,1.7,7.7,3.6,10.7,7c1.4,1.6,2,3.5,1.5,5.1c-0.3,1.4-1.4,2.5-3.1,3.2c-2.4,0.9-5.9,1.5-8.5,0.7c-4.2-1.4-8.3-4-11.3-6.2
	c-3.4-2.4-6.7-5.1-10-7.6c-0.9,0.1-1.7,0.2-2.6,0.4c0.2,0.1,0.3,0.3,0.5,0.4C153.3-49,156.9-46.1,160.7-43.4z M64.8,330.2
	c-2.9,3.8-6.2,7.1-9.6,9.6c-3.1,2.3-6.3,3.4-9.6,3.4s-6.5-1.1-9.8-3.3c-11-7.3-15.1-26.8-11.2-37.9c3.5-9.9,9-19.2,16.9-28.2
	c10.2-11.8,23.7-18.3,36.9-23.4c3.8-1.5,7.8-2.5,11.8-3.5c1.7-0.4,3.5-0.9,5.2-1.3c0.2-0.1,0.4-0.1,0.7,0c0.1,0,0.1,0,0.2,0
	c11.6,0.1,23.3,1.6,34.6,4.6c10.1,2.6,17.7,7.8,22.5,15.6c2.6,4.2,3.4,8.8,2.1,12.5c-0.9,2.4-2.8,5.6-7.9,7.4
	c-3.5,1.3-7.1,2.2-10.7,3l-2.2,0.5c-1,0.2-2,0.5-3,0.8c-7.5,1.8-14.6,3.5-21,7.8c-9.1,6.1-18.3,11.9-28.4,18.1
	C76.2,319.6,69.7,323.8,64.8,330.2z M80.4,312.5c10.1-6.3,19.3-12,28.3-18.1c7-4.6,14.7-6.5,22.2-8.3c1-0.2,2-0.4,2.9-0.8l2.2-0.5
	c3.4-0.9,7-1.6,10.2-2.9c2.9-1.1,4.8-2.8,5.7-5c0.9-2.6,0.3-6-1.7-9.2c-4.2-7-10.9-11.4-20.2-13.9c-11-2.8-22.4-4.4-33.7-4.5h-0.1
	c-1.7,0.4-3.4,0.9-5.1,1.3c-3.8,0.9-7.7,1.8-11.3,3.3c-12.6,5-25.7,11.2-35.4,22.4c-7.6,8.7-12.8,17.5-16.2,27
	c-4.1,11.8,1.8,28.3,9.7,33.4c5.2,3.5,10.2,3.5,15,0c3-2.3,6.1-5.2,8.8-8.8C67.1,321,74.2,316.3,80.4,312.5z M86.1,297.1
	c-4.9,3.2-10.4,4.9-15.8,4.9c-0.8,0-1.5,0-2.4-0.1c-6.3-0.5-9.4-1.5-9.9-6.9c-0.3-3,0.2-6.6,1.5-9.6c3.2-7.3,9.3-12.5,17.4-15.1
	c4.8-1.5,9.8-2.7,14.7-3.9c2.2-0.5,4.4-1.1,6.4-1.6c0.1,0,0.3,0,0.4,0c0.1,0,0.2,0,0.3,0c1.3,0.1,2.6,0.2,3.9,0.3
	c2.9,0.2,6,0.5,8.9,1.3c2.8,0.9,4.6,2.5,5,4.6c0.4,2-0.7,4.1-2.8,5.8C104.1,284.3,95.3,291,86.1,297.1z M85,295.5
	c9.3-6.1,18-12.7,27.6-20.2c1.5-1.2,2.3-2.6,2.1-3.9c-0.2-1.3-1.6-2.4-3.7-3c-2.7-0.8-5.7-1-8.5-1.3c-1.3-0.1-2.6-0.2-3.9-0.4h-0.1
	c-2.2,0.5-4.2,1.1-6.4,1.6c-4.8,1.2-9.8,2.4-14.6,3.8c-7.6,2.4-13.3,7.2-16.2,14c-1.2,2.6-1.7,5.9-1.4,8.7c0.3,3.7,1.6,4.6,8.2,5.2
	C73.8,300.5,79.7,299,85,295.5z M168.1,51.8c3.2-6.3,8.8-10.3,16.8-11.6c0.1,0,0.2,0,0.3,0s0.1,0,0.2,0c4.2,0.1,7.8,1.4,11,4
	c6,4.9,7.2,16.4,2.5,24.3c-3.5,5.9-9.5,9-15.8,9c-2.9,0-6-0.8-8.8-2.2C165.8,70.8,163.3,61.3,168.1,51.8z M175.1,73.5
	c8.2,4.2,17.4,1.7,22.1-6.1c4.7-7.7,2.7-18-2.1-21.9c-2.8-2.3-6-3.5-9.8-3.6c-0.1,0-0.1,0-0.1,0c-7.3,1.3-12.4,4.9-15.3,10.7
	C166.3,59.7,166.5,69,175.1,73.5z M-36.2,244.5c1,0.2,2,0.2,2.9,0.2c4.8,0,9.6-2.2,14.3-6.4c3.5-3.2,6.1-7.1,8.6-10.9l1.3-2
	c2-2.8,3.7-5.8,5.4-8.6c2.6-4.2,5.3-8.7,8.4-12.7c4.4-5.8,7-12.3,9.5-18.6c1.1-2.6,2.1-5.3,3.3-7.9c1.2-2.5,2.3-5.1,3.3-7.7
	c0.5-1.4,1.2-2.8,1.7-4.2c4.4-10.2,4.9-21,1.6-32.8l-0.3-1.3c-1.7-6.4-3.6-13.1-4.5-19.6c-0.7-5.2-0.5-10.8,0.3-16.2
	c1.1-6.4,2.4-12.8,3.7-19c1.2-5.4,2.4-11.1,3.4-16.6c1.7-9.7,0.1-19.1-1.7-28c-1.2-5.4-2.4-11.8-2.6-17.6c0-1.8,0.1-3.7,0.2-5.5
	c-1.4,1.3-2.7,2.5-4.1,3.8c0,0.5,0,1.2,0,1.7c0.1,6.3,1.4,12.7,2.6,18.4c1.7,8.5,3.4,17.5,1.7,26.5c-1,5.6-2.2,11.1-3.3,16.5
	c-1.3,6.3-2.7,12.7-3.8,19.3c-1,5.9-1.1,11.9-0.3,17.4c0.9,6.9,2.7,13.6,4.6,20.1l0.3,1.3c3.1,10.9,2.5,20.8-1.5,30.2
	c-0.7,1.4-1.2,2.8-1.7,4.2c-1,2.5-2.1,5.1-3.2,7.5c-1.2,2.7-2.3,5.4-3.4,8.1c-2.5,6.3-4.9,12.4-8.9,17.7c-3.2,4.1-6,8.6-8.6,12.9
	c-1.7,2.8-3.5,5.7-5.4,8.5l-1.3,2c-2.4,3.6-4.9,7.4-8.1,10.2c-4.6,4.2-9.4,6-13.8,5.2c-4.2-0.9-8.1-4.2-10.7-9.5
	c-1.7-3.7-3.3-7.6-4.7-11.4c-0.3-1-0.8-2-1.1-2.9c-0.9-2.4-1.9-4.9-2.9-7.5c0.4,5.3,1.1,10.4,1.8,15.7c1,2.6,2.1,5.3,3.4,7.8
	C-46.4,239.3-41.7,243.4-36.2,244.5z M337.4,361.4c-3-0.1-6.2-0.4-9.2-0.7c-3.5-0.3-7.1-0.7-10.7-0.8c-10.1-0.2-16.5,4.9-17.6,13.8
	c-0.5,4.4-0.2,9.4,1.1,15.2c0.9,3.9,2,7.6,3.4,11.3c0.5-0.3,1.1-0.7,1.6-1c-1.3-3.5-2.4-7.1-3.2-10.8c-1.2-5.7-1.6-10.4-1.1-14.6
	c1-7.8,6.4-12.2,15.2-12.2c0.2,0,0.3,0,0.5,0c3.5,0.1,7.1,0.4,10.6,0.8c3,0.3,6.3,0.5,9.4,0.7c6.1,0.2,11.8,0.2,17.3,0.1
	c0.7-0.7,1.3-1.3,2.1-2C350.5,361.7,344.2,361.7,337.4,361.4z M143.3-35.4l0.4,0.3c5.1,4.4,10.3,8.9,15.8,13.1
	c7.5,5.7,16.5,6.7,23.5,7.1c4.4,0.2,8.8,0.3,13.2,0.3c5.1,0.1,10.4,0.2,15.6,0.5c3.5,0.2,7.1,0.7,10.4,1.1c3.5,0.4,7.1,0.9,10.6,1.1
	c0.3,0,0.7,0,1,0c6.3,0,10.1-3.6,11.5-10.7c1.2-6.2,1.1-12.3-0.4-18.8c-0.8-3.2-2.1-5.8-3.8-7.8c-1.1-0.2-2.2-0.4-3.4-0.8
	c2.6,2.3,4.5,5.2,5.3,9c1.4,6.2,1.6,12.1,0.4,18.1c-1.3,6.5-4.7,9.5-10.6,9.1c-3.5-0.2-7.1-0.7-10.4-1.1c-3.5-0.4-7.1-0.9-10.7-1.1
	c-5.2-0.3-10.6-0.4-15.7-0.5c-4.4-0.1-8.8-0.2-13.2-0.3c-6.8-0.3-15.3-1.3-22.4-6.7c-5.4-4.1-10.7-8.6-15.7-13.1l-0.4-0.3
	c-2.7-2.4-5.4-4.8-8.2-7.3c-1.7-1.5-3.4-3-5.1-4.6c-0.8,0.2-1.5,0.3-2.3,0.5c2.1,1.9,4.1,3.7,6.1,5.4
	C137.9-40.3,140.6-37.8,143.3-35.4z M413.2,258.6c-8.7-9.4-14.1-19.5-16.8-31c-1.4-6.3-0.3-12.2,0.8-18.5c0.2-1.5,0.5-3,0.8-4.6
	c0.2-1.6,0.5-3.4,0.9-5c0.9-5.3,1.7-10.8,2.2-16.1c0.5-7.2,0.5-14.5,0-21.7c-0.9-12.6-4.7-21.7-12.1-28.7
	c-14.3-13.6-28.4-24.3-43.2-32.8c-7.3-4.1-13.7-8.2-19.9-12.3c-10.4-7-21.1-9.9-32.5-8.9h-0.1c-0.1,0-0.3,0-0.4,0
	c-11,2.8-17.4,11.1-19.3,25c-1.4,9.8-1.2,19.8-0.9,27.4c0.4,9.6,1,20.7,3.2,31.2c3.3,16.4,10.4,31.1,21.2,43.7
	c7.6,9,18.5,11.6,28.2,13.4c11.4,2.1,18.3,8.4,21.1,19.3c1,3.8,2,7.6,2.8,11.4c1.3,5.4,2.7,11.1,4.1,16.5
	c1.9,6.7,5.9,10.8,11.4,11.6c4.4,0.7,9,0.2,13-0.3c4.6-0.7,9.2-1.4,13.7-2.3c3.7-0.7,7.5-1.3,11.2-1.8c4.8-0.8,7.4,0.3,9.7,4.1
	c0.3-0.8,0.5-1.4,0.9-2.2c-2.6-3.6-5.8-4.7-10.9-3.9c-3.8,0.5-7.6,1.2-11.2,1.9c-4.5,0.8-9.1,1.6-13.7,2.2c-3.8,0.5-8.2,1-12.4,0.3
	c-6.1-1-8.7-6.1-9.9-10.3c-1.5-5.4-2.8-11.1-4.1-16.4c-1-3.8-1.8-7.6-2.8-11.4c-2.9-11.5-10.6-18.5-22.6-20.7
	c-9.2-1.7-19.8-4.2-27-12.7c-10.6-12.4-17.5-26.9-20.8-42.9c-2.1-10.3-2.7-21.3-3.2-30.9c-0.3-7.5-0.5-17.4,0.9-27
	c1.9-13.3,7.5-20.7,17.9-23.4c0.1,0,0.2,0,0.2,0c11-0.9,21.2,2,31.2,8.6c6.2,4.1,12.7,8.2,20,12.3c14.7,8.4,28.6,19,42.8,32.4
	c7,6.6,10.7,15.3,11.4,27.4c0.5,7.1,0.5,14.3,0,21.3c-0.4,5.3-1.3,10.8-2.2,16c-0.3,1.7-0.5,3.4-0.9,5c-0.2,1.5-0.5,3-0.8,4.6
	c-1.1,6.2-2.3,12.6-0.8,19.3c2.7,11.9,8.3,22.3,17.2,31.9c2,2.1,4.2,2.7,6.5,2c0.2-0.8,0.5-1.6,0.8-2.4c-0.1,0-0.1,0.1-0.2,0.1
	C416.8,260.8,415,260.4,413.2,258.6z M116.8,183.2c-4.2-5.4-4.6-13.8-0.9-19.7c4.5-7.3,11.6-11.8,21.2-13.2c2.8-0.4,5.8-0.8,8.6-1
	c3.6-0.3,7.3-0.8,10.9-1.4c6.4-1.2,12.9-2.5,19.3-3.9c2.7-0.7,5.6-1.2,8.3-1.7c0.2,0,0.4-0.1,0.5,0c0.1,0,0.2,0,0.3,0
	c0.4,0,1,0.1,1.4,0.1c1.1,0.1,2.3,0.1,3.4,0.3c5.3,1,8.8,2.7,10.6,5.3c1.3,2,1.7,4.2,1.2,6.7c-0.5,2.6-2,5.2-3.7,6.7
	c-13.3,11.6-28.1,21.9-44.2,30.1c-4.5,2.3-9.2,3.5-13.8,3.5C131.2,195.3,122.7,191.1,116.8,183.2z M119.8,180.9
	c7.9,10.3,20.9,13.4,32.3,7.4c15.8-8.2,30.4-18.1,43.3-29.6c1.1-1,2.1-2.8,2.4-4.6c0.3-1.6,0.1-2.8-0.7-3.9c-1.2-1.7-3.9-3-8.1-3.8
	c-1-0.1-1.9-0.2-2.9-0.3c-0.5,0-1-0.1-1.5-0.1c-2.7,0.5-5.4,1.2-8.1,1.7c-6.3,1.4-13,2.8-19.5,3.9c-3.7,0.7-7.5,1.1-11.2,1.4
	c-2.8,0.3-5.7,0.5-8.4,1c-8.6,1.2-14.6,5-18.6,11.3C116.3,170.2,116.5,176.7,119.8,180.9z M47.1,67.2c0.2-10,0.4-20.3,0.5-30.5
	c0-2.4-0.1-4.9-0.3-7.3c-0.2-2.7-0.4-5.7-0.3-8.5c0.2-8.5,3.9-13.9,10.8-16.3c0.2-0.1,0.5-0.1,0.9-0.1c0.1,0,0.1,0,0.2,0
	c0.8,0,1.4,0,2.2,0c3.1-0.1,6.6-0.2,9.7,2c3.4,2.4,6.5,4.9,8.8,8.1c8.6,12,15.7,20.8,22.9,28.6c3.9,4.2,6.9,9.5,8.9,16
	c2.7,8.2,3.2,16.4,3.2,26.3c-0.1,9.6,1.5,17.7,4.8,24.9c3.8,8.3,9.1,12.9,16.8,14.7c8.9,2.1,17.7,1.5,25.9,0.7
	c5.7-0.7,11.4-1.1,17.1-1.5c3.7-0.3,7.3-0.5,11-0.9c1.9-0.1,3.7-0.4,5.6-0.7c2.5-0.3,5-0.7,7.6-0.9c5.3-0.3,11.8-0.2,17.7,2.4
	c5.3,2.4,9.5,7.6,11.4,14.4c2.3,7.9,1.4,16.6-2.5,22.6c-3.3,4.9-7.8,8.9-14.1,12.4c-11.5,6.4-22,14.5-31.8,24.6
	c-5.9,6.1-12.2,9.9-19.3,11.8c-6,1.5-12.4,2.9-19.3,2.9c-2,0-4-0.1-6.1-0.4c-7.3-1-13.4-2.1-19.3-4.6c-3.8-1.6-7.7-3.5-11.3-5.3
	c-3.5-1.6-7-3.4-10.6-5c-6.9-3-12.4-3.7-18-2.3c-4,1.1-8.1,2-12.1,2.7c-1.3,0.2-2.5,0.5-3.7,0.8c-5.2,1.1-10-1.2-12.8-6.3
	c-2.9-5.2-2.4-10.4-1.8-15.5l0.1-1.4c0.3-2.8,0.7-5.8,1-8.6c0.7-5,1.3-10.1,1.4-15.1c0.1-4.9-0.3-9.9-0.8-14.8
	c-0.2-2.7-0.4-5.7-0.7-8.5c-0.1-2.6-0.2-5.3-0.2-8.1c-0.1-4.6-0.1-9.2-0.8-13.7c-0.2-2-0.5-3.8-0.9-5.8c-1.1-7.6-2.3-15.4-2.1-23.3
	L47.1,67.2z M51.4,36.8c-0.1,10.2-0.3,20.6-0.5,30.6l-0.2,10.9c-0.1,7.6,1,15.3,2.1,22.7c0.3,2,0.5,3.8,0.9,5.8
	c0.7,4.7,0.7,9.5,0.8,14.1c0,2.6,0.1,5.2,0.2,7.8c0.1,2.7,0.3,5.6,0.7,8.3c0.4,5,0.9,10.1,0.8,15.2c-0.1,5.2-0.9,10.4-1.5,15.4
	c-0.3,2.7-0.8,5.7-1,8.4l-0.1,1.4c-0.4,4.7-1,9.1,1.4,13.2c2.1,3.6,5.2,5.2,8.7,4.5c1.3-0.2,2.5-0.5,3.8-0.8
	c3.9-0.9,7.9-1.6,11.9-2.7c2.1-0.5,4.2-0.9,6.4-0.9c4.4,0,8.9,1.1,14,3.4c3.6,1.6,7.2,3.4,10.7,5c3.7,1.7,7.4,3.6,11.2,5.2
	c5.4,2.4,11.2,3.4,18.3,4.4c8.5,1.1,16.4-0.5,23.8-2.4c6.4-1.6,12.1-5.1,17.5-10.7c10.1-10.4,20.8-18.7,32.7-25.2
	c5.8-3.2,9.9-6.9,12.8-11.2c3.3-5,4.1-12.5,2.1-19.4c-1.6-5.7-5.1-10-9.4-12c-5.3-2.4-11-2.4-16-2.1c-2.4,0.1-4.9,0.4-7.3,0.8
	c-1.8,0.2-3.8,0.5-5.7,0.7c-3.7,0.3-7.4,0.7-11,0.9c-5.6,0.4-11.3,0.9-17,1.5c-8.5,0.9-17.6,1.4-27.1-0.8
	c-8.8-2.1-15.1-7.6-19.4-16.9c-3.5-7.7-5.2-16.4-5.1-26.6c0.1-9.5-0.4-17.4-2.9-25.1c-2-6-4.7-10.8-8.2-14.6
	c-7.3-7.9-14.5-16.9-23.2-28.9c-2-2.7-4.9-5-7.9-7.3c-2-1.4-4.6-1.3-7.3-1.3c-0.8,0-1.5,0-2.3,0c-5.2,2-7.7,6-7.9,12.7
	c-0.1,2.6,0.1,5.4,0.3,8.1C51.2,31.7,51.4,34.3,51.4,36.8z M37,30c-0.9-5.2-1.6-10.6-1-16.1c1-7.2,3.4-12.5,7.5-16.9
	c4.2-4.4,9.7-7.1,17.5-8.6c0.2,0,0.3,0,0.5,0h0.1c14.9-0.7,25.7,6,31.2,19.3c4.9,11.6,11.8,22.3,18.4,32.2
	c6.4,9.7,8.6,20.6,9.9,30.8c0.4,3.2,0.7,6.4,1,9.6c0.4,4.1,0.8,8.5,1.4,12.6c1,6.2,3.4,11.8,7.2,16.3c4.7,5.8,11.4,8.6,21.2,8.8
	c8.3,0.2,16.9,0,26.2-0.8c5.3-0.4,10.7-1.3,15.9-2.3c1.3-0.2,2.6-0.4,3.9-0.7c2.8-0.4,5.8-1.2,8.6-1.8c7.6-1.9,15.6-3.8,23.9-2
	c7.6,1.6,16.5,6.4,18.4,14.9c1.5,7,1.5,14.5-0.1,23.4c-2.3,12.7-10,22.3-22.2,27.7c-15.7,7.1-28,15.9-37.3,26.8
	c-1.7,2-3.6,3.7-5.3,5.4l-0.9,0.9c-4.9,4.7-10,7.4-15.6,8.5c-1.6,0.3-3.3,0.4-4.9,0.7c-1.6,0.1-3.2,0.3-4.7,0.7
	c-3.3,0.7-6.4,0.9-9.6,0.9c-5.2,0-10.4-0.7-15.5-1.3c-8.4-1.1-16.1-4.2-23.5-7.3c-1.3-0.5-2.6-1.1-3.9-1.5c-5.3-2.2-11-4.1-16.7-3.5
	c-4.9,0.5-9.9,2.3-14.7,4l-1,0.3c-2.5,0.9-5.1,2-7.6,2.9c-6.1,2.4-12.4,4.9-19.3,6c-3.6,0.5-8.5,1.3-11.4-3.3
	c-1.2-2-1.9-4.7-1.9-8.2c0-5,0.2-9.7,0.8-14l0.1-1c0.8-5.5,1.4-11.4,3.1-17c2.6-9.1,5.3-18.5,5-28.2c-0.2-5-1-10.2-1.7-15.2
	c-0.3-1.8-0.5-3.8-0.9-5.7c-0.3-2.7-0.9-5.6-1.3-8.3c-1.2-7-2.4-14.3-2.2-21.5l0.2-4.9c0.2-4.7,0.3-9.6,0.7-14.3
	c0.1-1.5,0.2-3,0.2-4.6c0.2-5.1,0.4-10.4,1.4-15.6c1.1-5.7,0.4-11.1-0.2-16.9c-0.1-1.3-0.3-2.7-0.4-4C37.7,34.7,37.4,32.3,37,30z
	 M40.8,29.4c0.3,2.4,0.8,4.8,1,7.3c0.1,1.3,0.2,2.6,0.4,4c0.7,5.8,1.3,11.9,0.1,18.1c-0.9,4.9-1.2,10-1.4,15c-0.1,1.5-0.1,3-0.2,4.6
	c-0.3,4.7-0.4,9.6-0.7,14.3l-0.2,4.9c-0.2,7,0.9,14,2.1,20.8c0.4,2.7,1,5.6,1.3,8.4c0.2,1.8,0.5,3.7,0.9,5.5
	c0.8,5.1,1.6,10.4,1.7,15.7c0.3,10.3-2.6,20.5-5.2,29.4c-1.5,5.2-2.3,10.9-2.9,16.3l-0.1,1c-0.5,4.1-0.8,8.7-0.8,13.5
	c0,2.8,0.4,4.9,1.3,6.2c1.4,2.3,3.8,2.1,7.5,1.5c6.4-1,12.2-3.3,18.4-5.8c2.5-1,5.1-2.1,7.7-2.9l1-0.3c5-1.7,10.2-3.6,15.6-4.2
	c0.9-0.1,1.7-0.1,2.6-0.1c5.7,0,11.1,2,15.9,3.9c1.3,0.5,2.6,1.1,3.9,1.6c7.2,2.9,14.7,6.1,22.5,7.1c8.3,1.1,16,2.1,23.9,0.4
	c1.7-0.3,3.5-0.5,5.1-0.7c1.5-0.1,3-0.3,4.5-0.5c4.8-1,9.2-3.4,13.6-7.5l0.9-0.9c1.7-1.6,3.6-3.4,5.1-5.2
	c9.7-11.4,22.4-20.5,38.6-27.9c11.1-5,17.9-13.4,20-25c1.5-8.4,1.6-15.3,0.1-21.9c-1.5-6.6-9.3-10.7-15.5-12
	c-7.6-1.6-14.7,0.1-22.3,2c-2.8,0.7-5.9,1.4-8.8,2c-1.3,0.2-2.6,0.4-3.9,0.7c-5.3,1-10.8,2-16.2,2.3c-9.5,0.8-18.2,1-26.7,0.8
	c-11-0.2-18.6-3.5-24.1-10.2c-4.2-5.2-7-11.3-8.1-18.2c-0.7-4.2-1.1-8.6-1.4-12.8c-0.3-3-0.5-6.3-1-9.5c-1.2-9.8-3.2-20-9.2-29.2
	c-6.8-10.1-13.7-20.9-18.7-32.9C84.2-2.9,75-8.6,61.7-8.1c-0.1,0-0.2,0-0.2,0c-7,1.4-11.8,3.7-15.3,7.5c-3.6,3.7-5.7,8.4-6.4,14.7
	C39.1,19.5,40,24.3,40.8,29.4z M47.7,364.1c-0.4,0-0.9,0-1.3-0.1c-8.5-0.8-15.6-5.7-21.8-14.8c-5.3-7.8-7.9-16.5-9.7-23.3
	c-1.6-6.3-3.5-15.8-1.4-24.9c2.9-13.2,10.4-25.2,22.9-36.9c5.6-5.1,11.5-9.6,17.9-13.2c2.9-1.6,5.8-3.5,8.6-5.2
	c8.7-5.4,17.7-11.1,28.5-13.1c0.1,0,0.2,0,0.3,0s0.2,0,0.2,0c1.4,0.1,2.8,0.2,4.1,0.3c3,0.2,6.2,0.4,9.4,1c4.4,0.8,8.7,1.6,12.8,2.5
	c5.2,1.1,10.6,2.2,15.9,3c11.2,1.7,22.9,4.5,32.7,12.2l1.3,1c4.6,3.6,9.4,7.2,11.6,13.3c2.1,5.2,1.7,11.2-0.9,16.9
	c-2.9,6.6-8.7,12.2-15.5,14.7c-7.9,3-16.2,3-24.2,3h-2c-7.8,0-14,1.5-19,4.6c-12.8,7.7-22.9,14.4-31.8,20.7
	c-4.8,3.5-8.8,8.2-12.5,12.8c-2.5,3-4.8,6.4-7,9.6c-2,2.8-4,5.9-6.2,8.7C57.3,361.4,52.6,364.1,47.7,364.1z M59.5,355.7
	c2.2-2.7,4.1-5.7,6.2-8.6c2.3-3.3,4.6-6.6,7.1-9.7c3.8-4.7,7.8-9.6,12.8-13.2c8.9-6.4,19-13.1,31.9-20.8c5.2-3.2,11.8-4.8,20-4.8h2
	c8.2,0,15.9-0.1,23.5-2.9c6.2-2.4,11.6-7.5,14.4-13.7c2.3-5.2,2.6-10.7,0.8-15.4c-2.1-5.5-6.4-8.8-11.1-12.4l-1.3-1
	c-9.5-7.4-20.9-10-31.8-11.8c-5.3-0.9-10.8-2-16-3c-4.2-0.9-8.5-1.7-12.8-2.5c-2.9-0.5-6.1-0.8-9.1-0.9c-1.4-0.1-2.8-0.2-4.2-0.3
	h-0.1c-10.3,1.8-19.3,7.4-27.8,12.8c-2.8,1.7-5.8,3.6-8.7,5.2c-6.2,3.5-12.1,7.8-17.4,12.8c-12.2,11.3-19.5,23.1-22.3,35.9
	c-2,8.7-0.1,18,1.4,24c1.6,6.6,4.2,15.1,9.4,22.7c6,8.8,12.4,13.3,20.5,14C51.2,362.5,55.9,360.1,59.5,355.7z M387.8,293.7
	c-4.8,0-8.8,1.5-12.2,4.6c-3.6,3.3-6.9,7.4-9.6,11.9c-7.4,12.4-17.1,20-29.6,23.3c-4.7,1.2-9.2,0.1-12.3-2.9c-3-3-4.1-7.4-3-12.1
	c1.7-7.1,5.8-12.9,10-19l1.3-1.8c0.5-0.8,1.1-1.5,1.6-2.3c3.3-4.7,6.6-9.5,8.3-15.5c1.9-7,2.1-14.4,0.5-22.7
	c-1.1-6.2-2.8-11.8-5.2-16.2c-4.5-8.7-13.1-12.7-20.1-15.2c-12.3-4.5-21-11-26.7-19.9c-1.1-1.9-2.3-3.6-3.5-5.3
	c-2.7-4.2-5.6-8.5-7.9-12.9l-0.2-0.4c-5.7-10.7-11.4-21.7-14.3-33.6c-2.3-9.9-4.1-18.1-5.8-25.7c-0.2-1.1-0.5-2.2-0.8-3.3
	c-0.8-3.3-1.5-6.3-1.3-9.1c0.3-3.8,1.2-7.5,2.2-11.3c0.7-2.5,1.2-5.1,1.7-7.7c1.5-8.3,2.4-18.1-2.3-28.1c-3.7-8.1-6.3-16.4-7.5-24.7
	c-1.1-7.7-2.9-13.8-5.6-18.6c-8.4-15.1-22-24.9-40.6-29.2c-7.6-1.7-15.5-2.4-23.2-3.2c-3.3-0.3-6.6-0.5-10-1
	c-7.1-0.9-12.1-2.4-15.9-5.1c-1.4-1-2.8-2-4.2-3c-8.2-5.7-16.5-11.5-23.8-18.4c-3.6-3.4-7.3-6.7-11.1-9.9c-1.4,0.4-2.9,0.9-4.4,1.3
	c4.4,3.7,8.7,7.4,12.8,11.3c7.4,7,16,12.9,24.3,18.7c1.4,1,2.8,2,4.2,3c5.7,4,12.4,5.2,17.7,5.8c3.4,0.3,6.8,0.7,10.1,1
	c7.5,0.7,15.3,1.3,22.6,3c17.5,4,30.4,13.2,38.1,27.3c2.4,4.5,4.1,10,5.2,17.3c1.2,8.7,3.8,17.3,7.7,25.8c4.2,9,3.4,18.1,2,25.8
	c-0.4,2.5-1.1,5-1.6,7.4c-1,3.9-2,7.8-2.3,12c-0.3,3.5,0.5,7.1,1.4,10.4c0.2,1.1,0.5,2.1,0.8,3.2c1.6,7.6,3.5,15.8,5.8,25.7
	c2.8,12.4,8.8,23.6,14.6,34.5l0.2,0.4c2.4,4.6,5.3,9,8.1,13.3c1.2,1.7,2.3,3.6,3.4,5.3c6.1,9.7,15.5,16.8,28.6,21.4
	c6.7,2.4,14.1,5.9,18,13.4c2.2,4.1,3.8,9.2,4.8,15.1c1.4,7.7,1.2,14.6-0.5,21c-1.4,5.3-4.5,9.7-7.7,14.3c-0.5,0.8-1.1,1.6-1.6,2.4
	l-1.3,1.8c-4.2,6.1-8.7,12.5-10.6,20.3c-1.4,5.9,0.1,11.8,4.1,15.7s9.9,5.4,15.9,3.9c13.6-3.5,24.1-11.6,32-25
	c2.5-4.1,5.6-7.9,8.8-11c4.2-3.9,9.8-4.7,17.2-2.3c2.1,0.7,4.1,1.9,6.1,3c0.7-1.1,1.2-2.3,1.7-3.4c-2.1-1.3-4.4-2.6-6.8-3.4
	C393.4,294.1,390.5,293.7,387.8,293.7z M278.3,364.3c-0.8-6.1-2.5-12.2-4.2-17.8c-1.9-6.2-6.4-10.2-14-12.5c-3-0.9-6.1-1.6-9.1-2.4
	c-3.2-0.9-6.5-1.6-9.7-2.6c-6.5-2-13.1-5.2-20.1-9.8c-5.8-3.8-11.5-5.4-17.1-5c-4.5,0.3-9.2,1.3-15.1,3
	c-16.1,4.8-31.3,10.7-45.5,17.5c-8.6,4.2-17.5,8.2-26.1,12c-2.3,1-4.6,2.1-6.9,3C99.3,354.6,91,363,85,375c-1.3,2.7-2.6,5.3-3.9,8.1
	c-2.4,5-4.9,10.2-7.6,15.2c-0.5,1-1.2,2.1-1.7,2.9c0.5,0.3,1.1,0.5,1.7,0.9c0.7-1,1.2-2,1.7-2.9c2.7-5,5.2-10.2,7.7-15.3
	c1.3-2.7,2.6-5.3,3.9-8.1c5.9-11.8,13.8-19.8,24.5-24.5c2.3-1,4.6-2.1,6.9-3c8.6-3.8,17.5-7.7,26.1-12c14-6.9,29.2-12.7,45.2-17.4
	c5.8-1.7,10.4-2.6,14.8-2.9c5.1-0.4,10.4,1.2,15.9,4.8c7.2,4.7,13.9,7.9,20.6,10c3.3,1,6.5,1.9,9.8,2.6c2.9,0.8,6,1.5,9,2.4
	c7,2.1,11.1,5.8,12.7,11.2c1.6,5.6,3.4,11.5,4.1,17.5c1.4,10.7,3.2,22,6.7,32.8c1.3,3.9,2.7,7.8,4,11.6c0.5-0.2,1.2-0.5,1.7-0.9
	c-1.4-3.8-2.7-7.6-4-11.4C281.4,386,279.7,374.8,278.3,364.3z M59.8,74.9c-1.1-9.7-0.1-19,3-28.8c1.2-3.6,3.5-6,6.8-6.7
	c0.1,0,0.3,0,0.4,0s0.2,0,0.4,0c0.7,0.1,1.4,0.2,2.2,0.3c1.7,0.2,3.5,0.5,5,1.4c4.4,2.6,10,6.2,15.1,10.4c7,5.8,10.6,13.9,10.7,24.5
	c0,2.9-0.4,6-1,8.8c-0.3,1.7-0.7,3.7-0.8,5.4c-0.1,1.1-0.2,2.2-0.4,3.3c-0.4,3.4-0.9,6.7-0.2,9.8c1.5,6.6,4.2,13.2,6.6,19
	c4.7,11,12.7,16,24.7,15.2c3.2-0.2,6.4-0.2,9.6-0.3c5.8-0.1,11.8-0.2,17.6-1.2c5.6-0.9,11.1-1.4,16.5-2c3.6-0.3,7.4-0.8,11-1.2
	c7.2-0.9,13.6-0.2,19.6,2.1c8.4,3.2,12.1,8.3,11.8,16.6c-0.2,5.3-2.8,9.8-8.4,14.1c-3.4,2.7-6.9,5.4-10.2,8.2
	c-8.5,6.7-17.3,13.8-26.3,20.1c-9.9,7-19.9,10.3-30.1,10.3c-7.5,0-15-1.9-22.5-5.6c-10.9-5.3-20.2-13.7-29.5-26.4
	c-2.6-3.6-5.9-6.1-9.9-7.6c-6-2.3-10.1-6.5-12.4-12.9c-3.8-10.2-3.7-20.9,0.3-33.6c2.5-7.8,2-14.6-1.6-21.2
	C64.3,91,60.8,83.6,59.8,74.9z M61.8,74.6c1,8.4,4.4,15.6,7.5,21.4c3.8,7,4.5,14.4,1.9,22.6c-3.9,12.3-4,22.6-0.3,32.4
	c2.2,5.9,5.8,9.7,11.3,11.8c4.4,1.6,8.1,4.5,10.8,8.3c9,12.4,18.2,20.6,28.7,25.8c17.2,8.4,34.3,6.9,50.7-4.7
	c9-6.3,17.7-13.3,26.2-20.1c3.4-2.7,6.9-5.4,10.2-8.2c5-3.9,7.5-7.9,7.6-12.7c0.3-7.5-2.8-11.9-10.4-14.8c-5.8-2.2-11.9-2.8-18.7-2
	c-3.7,0.4-7.5,0.9-11.1,1.2c-5.4,0.5-11,1.1-16.4,2c-6,1-12,1.1-17.9,1.2c-3.2,0.1-6.3,0.1-9.5,0.3c-12.7,0.8-21.7-4.8-26.6-16.4
	c-2.5-5.9-5.3-12.6-6.7-19.4c-0.8-3.4-0.2-7,0.2-10.4c0.1-1.1,0.3-2.2,0.4-3.2c0.2-1.8,0.5-3.8,0.9-5.5c0.4-2.8,1-5.7,1-8.5
	c-0.1-9.9-3.4-17.6-9.9-23c-5-4.1-10.6-7.6-14.9-10.2c-1.2-0.7-2.6-0.9-4.2-1.1c-0.8-0.1-1.5-0.2-2.3-0.3c-2.6,0.7-4.5,2.5-5.3,5.5
	C61.7,56.1,60.7,65.3,61.8,74.6z M419.7,117.4c-1.3-4.5-2.8-8.9-4.5-13.4c-1.1-2.5-2.1-4.9-2.8-7.3c-1.5-3.7-3-7.3-4.7-10.9
	c1.5,9,4.9,18.3,10.8,29.3C418.9,115.9,419.3,116.6,419.7,117.4z M421.8,175.6c-3.7-8.5-5.3-17.7-6.9-26.7l-0.7-3.8
	c-1.6-9.4-5.8-17.6-12.6-25.4c-3.3-3.7-6.9-7.4-10.3-10.9c-2.6-2.7-5.4-5.6-8.1-8.4c-4.6-5-10.4-8.4-17.4-10.1
	c-11.3-2.9-22.4-8.4-33.9-16.8c-6-4.4-12-8.6-18.2-12.3c-9.1-5.3-14.9-13.3-17.6-24c-2.5-10.1-6.6-20.7-13-33.3
	c-6-12-8.5-22.1-7.9-32.1c0.2-3.6,0.8-7,1.7-9.9c-0.5-0.2-1.2-0.4-1.7-0.7c-1.1,3.2-1.6,6.7-1.9,10.6c-0.5,10.3,2.1,20.8,8.2,33.1
	c6.3,12.4,10.3,22.8,12.8,32.9c2.8,11.3,8.8,19.6,18.5,25.2c6.1,3.6,12,7.8,18,12.2c11.6,8.5,23,14.1,34.5,17.1
	c6.6,1.7,12.2,4.9,16.4,9.6c2.6,2.8,5.4,5.7,8.1,8.4c3.4,3.5,7,7.2,10.2,10.9c6.6,7.4,10.6,15.4,12.2,24.4l0.7,3.8
	c1.5,9,3.2,18.4,7,27.1c1.1,2.5,2.2,5,3.3,7.6c2.1,4.8,4.2,9.7,6.4,14.6c0.1-1.4,0.1-2.9,0.1-4.4c-1.6-3.7-3.3-7.4-4.8-11
	C424,180.7,422.9,178.2,421.8,175.6z M-19.7,293.4c-3.5-9.7-10.2-16.3-20.7-20.5c0.3,0.9,0.7,1.6,1,2.5c9,3.9,14.8,9.9,17.9,18.7
	c2.7,7.5,4.4,16,5.4,26.5c0.8,1.1,1.4,2.2,2.2,3.3c0-0.5-0.1-1.2-0.1-1.7C-15.1,310.6-16.8,301.5-19.7,293.4z M254.1,396.8
	c-12.7-17.2-27.3-28.4-44.7-34.3c-3.7-1.3-7.7-1.6-11.8-2c-1.7-0.1-3.6-0.3-5.3-0.5c-0.1,0-0.2,0-0.3,0c-0.1,0-0.3,0-0.4,0
	c-2.8,0.9-5.7,1.6-8.5,2.5c-7,2.1-14.3,4.2-21.4,6.2c-3.4,0.9-7.2,1.1-10.4,1.2c-23.5,0.9-40.4,12.9-46.3,33.3
	c-1.1,3.6-2.3,7.5-3.7,11.6c0.7,0.2,1.2,0.4,1.7,0.7c1.4-4.2,2.7-8.1,3.7-11.8c5.6-19.5,21.8-31.1,44.4-31.9c3.4-0.1,7.3-0.2,11-1.2
	c7.2-2,14.5-4.1,21.6-6.2c2.8-0.9,5.6-1.6,8.4-2.5c0,0,0,0,0.1,0c1.7,0.2,3.6,0.4,5.4,0.5c3.8,0.3,7.7,0.7,11.2,1.9
	c17,5.8,31.2,16.8,43.8,33.6c3.8,5.1,5.9,11.4,6.1,18.7c0,1.1,0,2.2-0.1,3.2c0.7-0.2,1.3-0.4,2-0.7c0.1-0.9,0.1-1.7,0.1-2.6
	C260.3,408.9,258.1,402.2,254.1,396.8z M-31.2,294.1c1.7,2.6,3.3,5.4,4.5,8.6c1.2,2.3,2.5,4.6,3.8,6.9c-1.9-9.4-5.4-16.3-11.4-22
	C-33.3,289.7-32.3,292-31.2,294.1z M293,6.4c1.2,2.9,2.5,5.9,3.6,8.9c0.5,1.3,1,2.7,1.5,4.1c1.4,3.8,2.9,7.7,4.1,11.6
	c3.6,11.6,9.6,20.2,18.1,26.2c4.1,2.9,8.2,5.9,12.3,8.8c4.1,3,8.4,6.1,12.6,9.1c5.3,3.7,11.6,5.5,20.5,6l1.8,0.1
	c3.9,0.2,7.9,0.3,11.9,0.8c4.5,0.4,7.3,3.6,9.7,6.9c1.1,1.5,2.1,3.2,3.1,4.8c0.9,1.4,1.7,2.9,2.7,4.4c5.4,8.1,10.3,15,15,21.5
	c5.1,7.2,8.2,15.8,9.4,26.4c1.4,12.4,4.9,24.2,10.8,35.9c0-1.6-0.1-3.3-0.2-4.8c-4.6-10.1-7.5-20.5-8.7-31.2
	c-1.2-11-4.4-19.9-9.7-27.3c-4.6-6.4-9.5-13.5-14.9-21.4c-1-1.4-1.9-2.8-2.7-4.2c-1-1.6-2-3.3-3.2-4.9c-2.5-3.5-5.8-7.2-11-7.7
	c-4-0.3-8.1-0.5-12-0.8l-1.8-0.1c-8.5-0.4-14.5-2.1-19.5-5.7c-4.2-2.9-8.5-6.1-12.6-9.1c-4.1-2.9-8.2-6-12.3-8.9
	c-8.2-5.8-13.8-14-17.3-25.2c-1.2-4-2.7-7.9-4.2-11.8c-0.5-1.3-1.1-2.7-1.5-4c-1.1-3-2.4-6-3.6-8.9c-3.2-7.5-6.4-15.2-7.5-23.4
	c-0.8-5.7-0.1-10.7,2.1-14.9c-0.5-0.2-1.1-0.5-1.7-0.8c-2.3,4.6-3.1,9.9-2.3,16C286.4-9,289.8-1.2,293,6.4z M250.1,373.4
	c-7.1-7.3-15-12.7-23.7-16.3c-10.4-4.4-21.1-8.1-30.4-11.1c-2.2-0.8-4.5-0.9-6.7-1.1c-1-0.1-2-0.1-3-0.2c-0.1,0-0.2,0-0.3,0
	s-0.3,0-0.4,0c-5.4,1.6-11,3.3-16.4,4.9c-12.4,3.7-25.1,7.5-37.7,11.6c-17.6,5.9-29.8,17.4-36,34.3c-2,5.4-3.8,10.2-5.7,14.6
	c0.5,0.2,1.2,0.5,1.7,0.8c1.9-4.5,3.7-9.2,5.8-14.7c6-16.2,17.6-27.3,34.7-33.1c12.4-4.1,25.2-7.9,37.6-11.6
	c5.4-1.6,11-3.3,16.4-4.9c0,0,0,0,0.1,0c1,0.1,2.1,0.2,3,0.2c2.3,0.1,4.4,0.3,6.3,1c9.1,3.2,19.8,6.7,30.3,11.1
	c8.4,3.5,16.2,8.8,23.1,15.9c9.4,9.7,15.9,21,19.5,33.6c0.8,2.6,1.3,5.2,1.7,7.6c0.7-0.2,1.2-0.4,1.8-0.7c-0.4-2.4-1-4.9-1.6-7.5
	C266.4,394.8,259.7,383.2,250.1,373.4z M221.1,254.2c-5.6-6.1-7.7-16.4-5.2-25.2c2.1-7.2,6.8-12.1,13.3-13.9c0.1,0,0.3,0,0.4,0h0.1
	c6.9-0.7,12.6,1.3,17.6,6c2.9,2.7,6,5.3,8.9,7.8c3,2.6,6.1,5.2,9,7.9c3.9,3.6,8.4,7.7,12,12.4c2.4,3.2,3.3,6.4,2.5,9.4
	c-0.9,3.2-3.4,5.7-7.4,7.4c-4.8,2.1-9.9,3-15.7,3c-2.5,0-5-0.2-7.8-0.5C237.7,267,228.6,262.3,221.1,254.2z M222.5,252.9
	c7.2,7.8,15.9,12.3,26.6,13.6c8.9,1.1,16.1,0.4,22.5-2.4c3.5-1.5,5.7-3.6,6.3-6.1c0.7-2.4-0.1-5-2.2-7.7c-3.5-4.6-7.8-8.6-11.8-12.2
	c-2.9-2.7-6-5.3-9-7.9c-2.9-2.5-6-5.2-8.9-7.8c-4.7-4.2-9.9-6.1-16.2-5.4c-0.1,0-0.2,0-0.3,0c-5.8,1.6-10,6.1-11.9,12.6
	C215.5,237.6,217.4,247.2,222.5,252.9z M204.9,262.8c-6.5-4.8-9.4-11.9-8.3-20.6c0.7-5.4,2.2-11.4,4.7-18.1
	c4.1-11.2,10.9-18.8,20.1-23c2.7-1.2,5.7-1.9,8.5-2.4c1.2-0.2,2.5-0.5,3.7-0.9c0.2-0.1,0.4-0.1,0.7-0.1c0.2,0,0.4,0,0.8,0
	c11.4,0,21.2,4.8,29,14c5.9,7,12.2,14.2,18.7,21.4c2,2.2,4.1,4.2,6.2,6.3c2.6,2.6,5.4,5.2,7.8,8.1c3.7,4.4,7.2,9.7,5.6,17
	c-2.3,9.9-9.8,14.7-16.9,18.1c-5.7,2.7-11.5,3.6-17,3.6c-4.4,0-8.6-0.5-12.2-1.2C238,281.8,220.7,274.3,204.9,262.8z M207.2,259.6
	c15.2,11.2,32,18.5,49.9,21.8c11.3,2.1,19.6,1.4,26.8-2.1c6.5-3.2,12.8-7.2,14.8-15.6c1.3-5.6-1.5-9.8-4.7-13.6
	c-2.4-2.7-5-5.3-7.6-7.8c-2.2-2.1-4.4-4.2-6.4-6.4c-6.6-7.2-13-14.5-18.8-21.5c-7.3-8.7-15.9-12.8-26.6-12.7h-0.1
	c-1.2,0.3-2.4,0.5-3.6,0.9c-2.7,0.7-5.3,1.2-7.7,2.2c-8.4,3.7-14.3,10.4-18.1,20.7c-2.3,6.4-3.8,12-4.5,17.2
	C199.6,249.9,201.9,255.7,207.2,259.6z M425.8,142c0.5,5.3,1.2,10.7,2.5,15.9C427.5,152.5,426.7,147.2,425.8,142z M86.2,343.2
	c3.3-5,8.4-8.2,13.4-10.9c2.9-1.6,5.9-3.3,8.8-4.9c6.2-3.5,12.6-7.1,19.2-10.2c3.4-1.6,7.5-2.3,11.4-3c0.8-0.1,1.5-0.2,2.3-0.4
	c2.8-0.5,5.8-0.9,8.6-1.2c4.7-0.5,9.5-1.2,14.1-2.4c11.8-3.2,20.8-10.9,26.6-16.4c1.2-1.1,2.3-2.3,3.5-3.5c1.1-1.1,2.3-2.3,3.4-3.4
	c4.6-4.4,9.5-5.7,14.9-3.8c7.1,2.4,13.5,4.8,19.5,7.3c4.6,1.9,9.2,3.9,13.8,5.9c4.2,1.9,8.7,3.8,13.1,5.6
	c15.6,6.4,29.4,4.1,41.2-6.7c5.7-5.2,12.1-11.5,16.8-19.3c5.7-9.4,4.6-20.5-2.6-27.6c-5-4.9-10.6-9.2-14.7-12.5
	c-11-8.4-19.4-19.2-26.8-29.5c-4.5-6.3-9.5-12.7-17.2-16.4c-5.1-2.4-10.2-2.4-15.3-2.4h-0.9c-0.1,0-0.1,0-0.2,0c-0.2,0-0.4,0-0.5,0
	c-1.5,0.3-2.9,0.7-4.5,0.9c-3.3,0.7-6.6,1.3-9.9,2.3c-10.6,3.2-19,9.6-25.2,19.2c-1.6,2.5-3.3,4.9-4.9,7.3c-2.1,3-4.1,6.1-6.2,9.2
	c-4.1,6.5-10.3,9-20,7.8c-6.4-0.8-13-1.6-19.3-2.6c-2.9-0.4-5.8-0.9-8.7-1.2c-10.4-1.4-20.6-3-30.3-6.5c-13.1-4.8-25.9-3.4-38.1,4.1
	c-14,8.7-26.4,16.8-37.7,24.6c-11.5,8.2-20.8,19.7-27.4,34.5c-3.4,7.5-4.4,16.4-2.7,25.9c2.3,13.6,5.2,27.9,9,43.4
	c1.7,1.7,3.5,3.5,5.2,5.2c-0.2-0.9-0.4-1.7-0.7-2.7c-4.2-16.8-7.4-32.1-9.9-46.7c-1-6.1-1.4-15.1,2.5-23.7
	c6.3-14.1,15.1-25.2,26.1-33c11.2-7.8,23.5-15.9,37.4-24.5c6.9-4.2,13.9-6.3,21.1-6.3c4.5,0,9.1,0.9,13.7,2.5
	c10,3.6,20.5,5.2,31,6.6c2.9,0.4,5.8,0.8,8.7,1.2c6.3,0.9,12.8,1.8,19.4,2.6c7.1,0.9,17.2,0.8,23.7-9.7c2-3,4-6.1,6.1-9.1
	c1.7-2.4,3.4-4.9,5-7.4c5.8-8.8,13.5-14.7,23.2-17.5c3-0.9,6.4-1.5,9.6-2.2c1.4-0.3,2.9-0.5,4.4-0.9h1c4.8,0,9.4,0,13.6,2.1
	c7,3.3,11.4,9,15.8,15.1c7.6,10.7,16.1,21.7,27.6,30.4c4.1,3.2,9.5,7.4,14.4,12.1c6.9,6.7,6,16.3,2.1,22.8
	c-4.4,7.4-10.7,13.4-16.1,18.5c-10.8,9.9-22.9,12-37.1,6.1c-4.4-1.7-8.7-3.7-13-5.5c-4.6-2-9.3-4-13.9-5.9
	c-6.1-2.5-12.5-4.9-19.7-7.3c-6.8-2.3-13.3-0.8-18.8,4.6c-1.2,1.1-2.3,2.3-3.5,3.5c-1.1,1.1-2.3,2.3-3.4,3.4
	c-8.7,8.4-16.7,13.3-24.9,15.4c-4.4,1.2-9.1,1.7-13.6,2.4c-2.9,0.3-5.9,0.8-8.8,1.3c-0.8,0.1-1.5,0.2-2.2,0.4
	c-4.2,0.8-8.5,1.4-12.4,3.4c-6.6,3.2-13.1,6.9-19.4,10.3c-2.9,1.6-5.9,3.3-8.8,4.9c-5.4,2.9-11.1,6.5-14.8,12.2
	c-5.3,8.2-10.6,16.8-15.5,25.5c-5.2,9.2-10.9,16.3-17.4,21.7c1.1,0.8,2.2,1.5,3.4,2.2c6.5-5.6,12.2-12.6,17.4-22
	C75.7,359.8,80.8,351.3,86.2,343.2z M350.1,20.2c2.3,2.1,6.1,3.3,9.5,3.3c1.6,0,3.3-0.3,4.6-0.9c0.2-0.1,0.4-0.2,0.8-0.4
	c-0.4-0.4-0.9-1-1.3-1.4c-0.1,0-0.1,0.1-0.2,0.1c-3.4,1.5-9.1,0.5-12-2.1c-1.3-1.2-1.3-1.7-1.3-1.9s0.2-0.5,1.6-1.1
	c0.1,0,0.2,0,0.3,0c3.4-0.4,6.2,0.9,9.2,2.5c-1.2-1.3-2.5-2.5-3.7-3.7c-1.7-0.5-3.7-0.9-5.7-0.7c0,0,0,0-0.1,0s-0.3,0-0.5,0
	c-1.7,0.7-2.7,1.5-2.9,2.6C347.9,18.1,349.1,19.4,350.1,20.2z M242.6,403.1c2,4.5,1.9,8.6-0.2,11.5c-1.7,2.5-4.8,3.8-8.5,3.8
	c-0.4,0-0.9,0-1.3,0c-7.2-0.5-14.4-2.1-21.7-3.8c-9.6-2.2-17.6-6.7-23.9-13.6c-2.8-3-4.4-7.1-4.1-10.9c0.1-3.6,1.7-6.9,4.5-9.4
	c3.4-3,7.2-5,12-6.3c0.1,0,0.3,0,0.4,0h0.1c7.9-0.7,15.2,1.6,21.8,6.7c5.8,4.6,10.3,8.5,14.3,12.4
	C237.9,395.7,240.7,399,242.6,403.1z M240.8,403.9c-1.3-3-3.5-6.1-6.3-8.9c-3.8-3.8-8.3-7.7-14-12.2c-6.1-4.8-13-7-20.4-6.4
	c-0.1,0-0.2,0-0.2,0c-4.5,1.1-8.1,2.9-11.1,5.8c-2.4,2.2-3.7,5-3.9,8.1c-0.1,3.4,1.2,6.7,3.7,9.5c6,6.5,13.7,11,23,13.1
	c7.2,1.6,14.3,3.2,21.3,3.7c3.7,0.2,6.5-0.8,8.2-3C242.5,411.2,242.5,407.8,240.8,403.9z M179.2,418.6c-10.7-3.9-19-4.5-27.1-1.8
	c-5.2,1.6-10.9,4.1-15.2,8.5c0.8,0.1,1.5,0.3,2.4,0.5c3.3-2.9,7.7-5.2,13.5-7.1c7.6-2.5,15.7-2,25.9,1.9c11,4,20.1,7,28.8,9.1
	c1.7-0.1,3.5-0.3,5.2-0.4c-1.5-0.5-3-1-4.7-1.3C199.4,425.5,190.2,422.6,179.2,418.6z M-24.3,86.5c5.4,4.7,12.6,0.5,15.9-3
	c5.1-5.7,5-12.4,4.2-18.8c-0.4-3.6-3.2-6.9-7.3-8.8c-1.4-0.7-2.7-1.4-4-2.3c-0.3,0.5-0.7,1.1-1.1,1.6c1.3,0.9,2.7,1.6,4.2,2.4
	c3.5,1.6,5.8,4.4,6.2,7.3c0.8,6,0.8,12.2-3.8,17.3c-3,3.4-9,6.4-13.2,2.9c-2-1.6-3.7-3.9-4.7-6.2c-0.4-0.9-0.8-1.6-1.1-2.5
	c-0.4,0.8-0.8,1.5-1.1,2.3c0.1,0.3,0.3,0.8,0.4,1.1C-28.3,82.2-26.5,84.6-24.3,86.5z M-13.2,280.2c-1.2-6.6-5-10.9-11.4-12.6
	c-1.7-0.5-3.6-1-5.4-1.5c-4.7-1.3-9.5-2.6-14.2-4.2c0.2,0.8,0.4,1.5,0.8,2.3c4.2,1.4,8.6,2.6,13,3.8c1.7,0.5,3.6,1,5.4,1.5
	c5.7,1.6,9,5.3,10,11.1c1.6,9.5,2.9,17.3,3.8,24.5c1.2,8.9,2.2,18.1,3.2,27c0.8,1,1.5,2,2.3,2.9c-1.1-9.9-2.2-20.1-3.5-30.1
	C-10.4,297.6-11.6,289.7-13.2,280.2z M-28,159.2c0.2,0.3,0.4,0.7,0.8,1c0.2,0.2,0.2,0.5,0.2,0.9c0,0.3-0.2,0.5-0.5,0.7
	c-0.4,0.2-0.9,0.4-1.3,0.8c-1.1,0.7-2.2,1.3-3.5,1.5c-0.5,0.1-1.2,0.2-1.8,0.2c-0.9,0-1.7-0.1-2.4-0.7c-0.8-0.4-1.2-1.3-1.3-2.2
	c-0.2-1.2,0.9-2.2,1.7-3.2c0.3-0.3,0.7-0.7,1-1c0.2-0.3,0.5-0.4,1-0.3c0.3-0.1,0.8,0,1.2-0.1c1-0.1,2-0.2,2.8,0.3
	C-29.3,157.4-28.7,158.3-28,159.2z M-29.4,160.4C-29.4,160.4-29.5,160.4-29.4,160.4c-0.7-0.9-1.1-1.5-1.7-1.9
	c-0.3-0.2-1.1-0.1-1.7-0.1c-0.4,0-0.8,0.1-1.1,0.1c-0.2,0.2-0.5,0.5-0.8,0.9c-0.4,0.4-1.2,1.2-1.2,1.5c0.1,0.5,0.3,0.8,0.5,0.9
	c0.5,0.3,1.5,0.4,2.7,0.1c1-0.2,2-0.8,2.9-1.3C-29.8,160.5-29.5,160.5-29.4,160.4z M351.3,66.6c4.9,2.1,11.2,1.6,15.8,0.9
	c2.2-0.3,4.5-0.9,6.5-1.3c4.9-1.1,9.9-2.3,15.1-2c3,0.2,6.1,0.9,8.9,2.3c-0.5-0.9-1.1-1.9-1.6-2.7c-2.3-0.8-4.8-1.3-7.2-1.4
	c-5.4-0.3-10.7,0.9-15.7,2c-2.1,0.4-4.4,1-6.4,1.3c-4.2,0.8-10.2,1.2-14.7-0.8c-12.6-5.6-23.2-13.7-30.6-23.7
	c-11.5-15.6-17.2-33.9-16.9-54.5c0.1-4.1,2.3-7.1,5-8.6c-0.7-0.3-1.2-0.8-1.9-1.1c-2.8,2-5,5.2-5,9.7c-0.3,21,5.4,39.8,17.2,55.7
	C327.5,52.5,338.4,60.9,351.3,66.6z M337.9,42.9c3.8,2.8,7.6,5.1,11.3,7c3.3,1.6,6.8,2.2,10,2.2c3.4,0,6.7-0.7,9.8-1.3
	c6.3-1.3,12-2,17.3-2.1c-0.4-0.7-0.9-1.3-1.3-1.9c-5.1,0.2-10.6,0.9-16.4,2.1c-7.1,1.5-13,2-18.5-0.8c-3.6-1.7-7.3-4-11-6.7
	c-13.2-9.7-19.3-21.3-18.4-35.6c0.3-5.9,2.5-9.4,6.6-11c1.6-0.7,3.4-1.2,5-1.7c-0.7-0.4-1.3-1-2-1.4c-1.3,0.4-2.6,0.9-3.8,1.4
	c-4.9,2-7.5,6.1-7.8,12.7C317.9,20.6,324.2,32.7,337.9,42.9z M-40.7,103.4c-1.5,4-2.8,8.1-4.1,12.1c0.2-0.2,0.4-0.4,0.7-0.7
	C-41.1,111.2-39.9,106.9-40.7,103.4z M-20.8,134.7c3.3,0.5,6.5,0.9,9.7,1.1c2,0.1,3.8,0.3,5.7,0.5c2,0.2,4-0.5,5.7-2.2
	c1.8-1.7,2.8-4,2.7-6.1c-1-16.2,3.5-31.9,7.8-47l1.3-4.8c2.7-9.7,5-20.1,3.7-31c-0.4-3.6-1.4-7.1-2.3-10.4c-0.7-2.4-1.3-4.8-1.7-7.3
	c-0.4-2.3-0.8-4.6-1-6.7C10.2,21.4,9.7,22,9,22.6c0.2,1.7,0.4,3.5,0.9,5.2c0.4,2.5,1.2,5,1.8,7.4c0.9,3.4,1.9,6.7,2.2,10.2
	c1.2,10.6-1.1,20.8-3.7,30.2l-1.3,4.8c-4.4,15.3-8.8,31.1-7.8,47.7c0.1,1.5-0.8,3.3-2.1,4.7c-1.3,1.2-2.8,1.8-4.1,1.6
	c-2-0.2-3.8-0.4-5.8-0.5c-3.2-0.2-6.4-0.5-9.6-1.1c-10.8-1.9-20.9,0-30.3,5.3c-0.2,0.9-0.3,1.7-0.5,2.5
	C-41.9,134.9-31.7,132.8-20.8,134.7z"/>
</svg>
